<svg width="109" height="28" viewBox="0 0 109 28" fill="none" xmlns="http://www.w3.org/2000/svg">
<path fill-rule="evenodd" clip-rule="evenodd" d="M29.2628 9.24918C29.2629 5.53273 26.8746 2.19715 23.248 0.84897C19.6214 -0.499212 15.5001 0.416413 12.869 3.15485H0.946289V27.1855H26.1197V15.9548C28.118 14.2479 29.2609 11.8094 29.2628 9.24918ZM24.4175 9.24918C24.4214 11.0286 23.302 12.6348 21.5817 13.3184C19.8615 14.0019 17.8795 13.6279 16.5606 12.371C15.2418 11.114 14.8461 9.22192 15.5582 7.57761C16.2703 5.93329 17.9499 4.8609 19.8131 4.8609C22.3523 4.8609 24.4122 6.82413 24.4175 9.24918ZM5.78974 22.56H21.2759V18.1535C20.7927 18.2299 20.304 18.2696 19.8142 18.2721C14.5982 18.267 10.3711 14.2303 10.3659 9.24918C10.37 8.75657 10.418 8.2652 10.5092 7.78033H5.78974V22.56Z" fill="#9893A3" fill-opacity="0.6"/>
<path d="M41.2644 20.3856C40.3444 20.3856 39.4378 20.2389 38.5444 19.9456C37.6644 19.6389 36.9178 19.1989 36.3044 18.6256L37.6044 16.2856C38.2578 16.7122 38.8844 17.0456 39.4844 17.2856C40.0978 17.5256 40.6511 17.6456 41.1444 17.6456C41.6911 17.6456 41.9644 17.4856 41.9644 17.1656C41.9644 16.9922 41.8511 16.8522 41.6244 16.7456C41.4111 16.6389 41.0644 16.5122 40.5844 16.3656C39.7578 16.0722 39.0644 15.7989 38.5044 15.5456C37.9578 15.2922 37.5444 14.9856 37.2644 14.6256C36.9978 14.2522 36.8644 13.7589 36.8644 13.1456C36.8644 12.0656 37.2644 11.1789 38.0644 10.4856C38.8644 9.79222 39.9711 9.44556 41.3844 9.44556C42.0911 9.44556 42.7978 9.55889 43.5044 9.78556C44.2244 9.99889 44.9178 10.3922 45.5844 10.9656L44.1444 13.2856C43.4778 12.8722 42.9111 12.5789 42.4444 12.4056C41.9911 12.2322 41.5844 12.1456 41.2244 12.1456C40.6644 12.1456 40.3844 12.3322 40.3844 12.7056C40.3844 12.9056 40.4911 13.0589 40.7044 13.1656C40.9178 13.2722 41.2578 13.3922 41.7244 13.5256C42.6311 13.7922 43.3711 14.0656 43.9444 14.3456C44.5178 14.6122 44.9378 14.9389 45.2044 15.3256C45.4844 15.7122 45.6244 16.2189 45.6244 16.8456C45.6244 17.9522 45.2311 18.8189 44.4444 19.4456C43.6711 20.0722 42.6111 20.3856 41.2644 20.3856Z" fill="#9893A3" fill-opacity="0.6"/>
<path d="M52.004 20.3856C51.1506 20.3856 50.384 20.1456 49.704 19.6656C49.024 19.1856 48.4906 18.5322 48.104 17.7056C47.7173 16.8789 47.524 15.9389 47.524 14.8856C47.524 13.8456 47.7306 12.9189 48.144 12.1056C48.5706 11.2922 49.1506 10.6522 49.884 10.1856C50.6173 9.70556 51.4506 9.46556 52.384 9.46556C53.1706 9.46556 53.8373 9.62556 54.384 9.94556C54.944 10.2656 55.4106 10.7122 55.784 11.2856V9.66556H59.084V24.4656H55.284V18.6256C54.6706 19.7989 53.5773 20.3856 52.004 20.3856ZM53.484 17.1856C54.1906 17.1856 54.7906 16.8256 55.284 16.1056V14.2256C55.1106 13.7589 54.8373 13.3856 54.464 13.1056C54.104 12.8122 53.724 12.6656 53.324 12.6656C52.7773 12.6656 52.3173 12.8922 51.944 13.3456C51.584 13.7989 51.404 14.3456 51.404 14.9856C51.404 15.6389 51.5973 16.1722 51.984 16.5856C52.3706 16.9856 52.8706 17.1856 53.484 17.1856Z" fill="#9893A3" fill-opacity="0.6"/>
<path d="M61.9132 16.5856V9.66556H65.7132V15.7256C65.7132 16.1789 65.8132 16.5389 66.0132 16.8056C66.2265 17.0589 66.5132 17.1856 66.8732 17.1856C67.1665 17.1856 67.4665 17.1189 67.7732 16.9856C68.0799 16.8522 68.3865 16.5589 68.6932 16.1056V9.66556H72.4932V15.9856C72.4932 16.3456 72.5465 16.5989 72.6532 16.7456C72.7599 16.8789 72.9465 16.9589 73.2132 16.9856V20.1856C72.5599 20.3189 72.0265 20.3856 71.6132 20.3856C70.3199 20.3856 69.5732 19.8989 69.3732 18.9256L69.2932 18.5456C68.7999 19.1989 68.2065 19.6722 67.5132 19.9656C66.8332 20.2456 66.0599 20.3856 65.1932 20.3856C64.1399 20.3856 63.3265 20.0589 62.7532 19.4056C62.1932 18.7522 61.9132 17.8122 61.9132 16.5856Z" fill="#9893A3" fill-opacity="0.6"/>
<path d="M75.1871 17.0056C75.1871 16.2989 75.3804 15.6789 75.7671 15.1456C76.1538 14.5989 76.6871 14.1722 77.3671 13.8656C78.0604 13.5589 78.8471 13.4056 79.7271 13.4056C80.5804 13.4056 81.2871 13.5389 81.8471 13.8056V13.4856C81.8471 12.9922 81.7004 12.6256 81.4071 12.3856C81.1271 12.1456 80.6671 12.0256 80.0271 12.0256C79.4404 12.0256 78.8871 12.1256 78.3671 12.3256C77.8604 12.5122 77.3271 12.7922 76.7671 13.1656L75.6671 10.8056C77.0538 9.91222 78.6338 9.46556 80.4071 9.46556C82.0738 9.46556 83.3604 9.84556 84.2671 10.6056C85.1871 11.3522 85.6471 12.4656 85.6471 13.9456V15.9856C85.6471 16.3456 85.7004 16.5989 85.8071 16.7456C85.9138 16.8789 86.1004 16.9589 86.3671 16.9856V20.1856C86.0604 20.2522 85.7671 20.2989 85.4871 20.3256C85.2204 20.3656 84.9804 20.3856 84.7671 20.3856C84.0871 20.3856 83.5671 20.2656 83.2071 20.0256C82.8604 19.7722 82.6338 19.4056 82.5271 18.9256L82.4471 18.5456C81.4871 19.7722 80.2938 20.3856 78.8671 20.3856C78.1738 20.3856 77.5471 20.2389 76.9871 19.9456C76.4271 19.6522 75.9871 19.2522 75.6671 18.7456C75.3471 18.2256 75.1871 17.6456 75.1871 17.0056ZM81.3471 17.2656C81.6804 17.0389 81.8471 16.7922 81.8471 16.5256V15.7456C81.6338 15.6656 81.3871 15.5989 81.1071 15.5456C80.8404 15.4922 80.6004 15.4656 80.3871 15.4656C79.9338 15.4656 79.5471 15.5789 79.2271 15.8056C78.9204 16.0322 78.7671 16.3189 78.7671 16.6656C78.7671 16.9589 78.8804 17.1989 79.1071 17.3856C79.3471 17.5722 79.6471 17.6656 80.0071 17.6656C80.5004 17.6656 80.9471 17.5322 81.3471 17.2656Z" fill="#9893A3" fill-opacity="0.6"/>
<path d="M95.8798 12.9056C95.1464 12.9056 94.4798 12.9856 93.8798 13.1456C93.2798 13.3056 92.8331 13.5722 92.5398 13.9456V20.1856H88.7398V9.66556H92.2198V11.6656C92.5931 10.9589 93.0598 10.4189 93.6198 10.0456C94.1798 9.65889 94.7731 9.46556 95.3998 9.46556C95.6531 9.46556 95.8131 9.47222 95.8798 9.48556V12.9056Z" fill="#9893A3" fill-opacity="0.6"/>
<path d="M103.24 20.3856C102.013 20.3856 100.967 20.1389 100.1 19.6456C99.2467 19.1522 98.5934 18.4989 98.1401 17.6856C97.7001 16.8722 97.4801 15.9989 97.4801 15.0656C97.4801 14.0522 97.7001 13.1256 98.1401 12.2856C98.5801 11.4322 99.2267 10.7522 100.08 10.2456C100.933 9.72556 101.987 9.46556 103.24 9.46556C104.493 9.46556 105.547 9.71889 106.4 10.2256C107.253 10.7322 107.9 11.3989 108.34 12.2256C108.78 13.0522 109 13.9522 109 14.9256C109 15.3389 108.967 15.7256 108.9 16.0856H101.52C101.56 16.6456 101.767 17.0522 102.14 17.3056C102.513 17.5456 102.92 17.6656 103.36 17.6656C103.773 17.6656 104.16 17.5722 104.52 17.3856C104.893 17.1989 105.14 16.9389 105.26 16.6056L108.48 17.5256C108.053 18.3656 107.393 19.0522 106.5 19.5856C105.607 20.1189 104.52 20.3856 103.24 20.3856ZM101.44 13.8056H104.92C104.867 13.2989 104.68 12.8989 104.36 12.6056C104.053 12.3122 103.66 12.1656 103.18 12.1656C102.7 12.1656 102.307 12.3122 102 12.6056C101.693 12.8989 101.507 13.2989 101.44 13.8056Z" fill="#9893A3" fill-opacity="0.6"/>
</svg>
