<svg width="93" height="36" viewBox="0 0 93 36" fill="none" xmlns="http://www.w3.org/2000/svg">
<path fill-rule="evenodd" clip-rule="evenodd" d="M3.12386 1.15622V26.4065C3.12386 26.7164 3.0102 27.0137 2.8079 27.2328C2.60559 27.452 2.3312 27.5751 2.0451 27.5751H1.79262C1.19684 27.5751 0.713867 27.0519 0.713867 26.4065V1.15622C0.720158 0.515649 1.2013 -3.62487e-05 1.79262 1.91108e-09H2.0451C2.63643 -3.62487e-05 3.11757 0.515649 3.12386 1.15622ZM16.3565 17.1625C16.5843 16.9275 16.8912 16.804 17.2053 16.8211L17.148 16.8459C17.4819 16.809 17.8141 16.9324 18.0569 17.1834C18.2997 17.4345 18.4289 17.7882 18.4103 18.1513V24.9892C18.4103 25.7101 17.8708 26.2946 17.2053 26.2946C16.5398 26.2946 16.0003 25.7101 16.0003 24.9892V18.0643C16 17.7235 16.1287 17.3975 16.3565 17.1625ZM19.8002 20.7621C19.8002 20.0755 20.314 19.5189 20.9478 19.5189C21.2799 19.4859 21.6088 19.6109 21.849 19.8616C22.0891 20.1122 22.2168 20.4636 22.1987 20.8243V22.3286C22.1987 23.0462 21.6618 23.6278 20.9994 23.6278C20.3371 23.6278 19.8002 23.0462 19.8002 22.3286V20.7621ZM10.7327 31.1059V22.1173C10.3738 22.4128 9.9324 22.5663 9.48181 22.5524C9.06847 22.5413 8.6681 22.3938 8.33419 22.1297V31.1059C8.33419 31.8234 8.87112 32.4051 9.53345 32.4051C10.1958 32.4051 10.7327 31.8234 10.7327 31.1059ZM5.72901 25.5238C5.31606 25.5104 4.91631 25.3631 4.5814 25.1011V34.1146C4.5814 34.8355 5.12089 35.42 5.78639 35.42C6.45189 35.42 6.99138 34.8355 6.99138 34.1146V25.1632C6.61663 25.4256 6.17447 25.5519 5.72901 25.5238ZM13.3952 19.4816C12.9629 19.4784 12.5421 19.3308 12.1902 19.0589V28.0973C12.1902 28.8183 12.7297 29.4027 13.3952 29.4027C14.0607 29.4027 14.6002 28.8183 14.6002 28.0973V19.0714C14.2361 19.3652 13.7917 19.5184 13.3378 19.5065L13.3952 19.4816ZM5.85526 24.5665H5.60279C5.00701 24.5665 4.52403 24.0432 4.52403 23.3978V4.16484C4.53032 3.52428 5.01146 3.00859 5.60279 3.00863H5.85526C6.44659 3.00859 6.92773 3.52428 6.93402 4.16484V23.4227C6.93402 24.0681 6.45104 24.5913 5.85526 24.5913V24.5665ZM9.39 21.6076H9.65395C10.2434 21.6076 10.7212 21.0899 10.7212 20.4513V7.14864C10.7213 6.50804 10.2452 5.98681 9.65395 5.97999H9.39C9.10494 5.97998 8.83172 6.1035 8.63123 6.32303C8.43075 6.54255 8.31965 6.83985 8.32272 7.14864V20.4513C8.32272 21.0899 8.80056 21.6076 9.39 21.6076ZM13.4523 18.5616H13.2114C12.62 18.5616 12.1389 18.046 12.1326 17.4054V10.2443C12.1135 9.92165 12.2187 9.60487 12.4231 9.36929C12.6275 9.13372 12.9129 9.00041 13.2114 9.00107H13.4638C14.0596 9.00107 14.5426 9.52429 14.5426 10.1697V17.3805C14.5456 17.6926 14.4333 17.9931 14.2307 18.2149C14.0281 18.4368 13.7519 18.5616 13.4638 18.5616H13.4523ZM17.0099 15.8886H17.2624H17.2739C17.8651 15.8818 18.3412 15.3606 18.3411 14.72V12.8675C18.3348 12.227 17.8537 11.7113 17.2624 11.7113H17.0099C16.4186 11.7113 15.9374 12.227 15.9311 12.8675V14.72C15.9311 15.3654 16.4141 15.8886 17.0099 15.8886Z" fill="#9893A3" fill-opacity="0.6"/>
<path d="M42.9971 16.333C42.9971 17.8564 42.6719 19.0459 42.0215 19.9014C41.3711 20.751 40.4629 21.1758 39.2969 21.1758C38.2656 21.1758 37.4424 20.7803 36.8271 19.9893L36.7129 21H34.4277V7.5H36.9678V12.3428C37.5537 11.6572 38.3242 11.3145 39.2793 11.3145C40.4395 11.3145 41.3477 11.7422 42.0039 12.5977C42.666 13.4473 42.9971 14.6455 42.9971 16.1924V16.333ZM40.457 16.1484C40.457 15.1875 40.3047 14.4873 40 14.0479C39.6953 13.6025 39.2412 13.3799 38.6377 13.3799C37.8291 13.3799 37.2725 13.7109 36.9678 14.373V18.126C37.2783 18.7939 37.8408 19.1279 38.6553 19.1279C39.4756 19.1279 40.0146 18.7236 40.2725 17.915C40.3955 17.5283 40.457 16.9395 40.457 16.1484ZM51.2656 20.0332C50.6387 20.7949 49.7715 21.1758 48.6641 21.1758C47.6445 21.1758 46.8652 20.8828 46.3262 20.2969C45.793 19.7109 45.5205 18.8525 45.5088 17.7217V11.4902H48.0488V17.6338C48.0488 18.624 48.5 19.1191 49.4023 19.1191C50.2637 19.1191 50.8555 18.8203 51.1777 18.2227V11.4902H53.7266V21H51.3359L51.2656 20.0332ZM60.1934 17.4053L61.9512 11.4902H64.6758L60.8525 22.4766L60.6416 22.9775C60.0732 24.2197 59.1357 24.8408 57.8291 24.8408C57.46 24.8408 57.085 24.7852 56.7041 24.6738V22.749L57.0908 22.7578C57.5713 22.7578 57.9287 22.6846 58.1631 22.5381C58.4033 22.3916 58.5908 22.1484 58.7256 21.8086L59.0244 21.0264L55.6934 11.4902H58.4268L60.1934 17.4053ZM68.0312 11.4902L68.0664 13.0371C68.418 12.4629 68.8574 12.0322 69.3848 11.7451C69.9121 11.458 70.498 11.3145 71.1426 11.3145C72.6426 11.3145 73.5947 11.9297 73.999 13.1602C74.3389 12.5684 74.793 12.1143 75.3613 11.7979C75.9297 11.4756 76.5566 11.3145 77.2422 11.3145C79.2812 11.3145 80.3213 12.4277 80.3623 14.6543V21H79.3076V14.7334C79.3018 13.8838 79.1172 13.2539 78.7539 12.8438C78.3965 12.4336 77.8105 12.2285 76.9961 12.2285C76.2402 12.2402 75.6016 12.4863 75.0801 12.9668C74.5586 13.4414 74.2686 14.0215 74.21 14.707V21H73.1553V14.6543C73.1494 13.8398 72.9561 13.2334 72.5752 12.835C72.2002 12.4307 71.6201 12.2285 70.835 12.2285C70.1729 12.2285 69.6045 12.4189 69.1299 12.7998C68.6553 13.1748 68.3037 13.7344 68.0752 14.4785V21H67.0205V11.4902H68.0312ZM87.7168 21.1758C86.9082 21.1758 86.1758 20.9766 85.5195 20.5781C84.8691 20.1797 84.3623 19.626 83.999 18.917C83.6357 18.2021 83.4541 17.4023 83.4541 16.5176V16.1396C83.4541 15.2256 83.6299 14.4023 83.9814 13.6699C84.3389 12.9375 84.834 12.3633 85.4668 11.9473C86.0996 11.5254 86.7852 11.3145 87.5234 11.3145C88.6777 11.3145 89.5918 11.71 90.2656 12.501C90.9453 13.2861 91.2852 14.3613 91.2852 15.7266V16.3154H84.5V16.5176C84.5 17.5957 84.8076 18.4951 85.4229 19.2158C86.0439 19.9307 86.8232 20.2881 87.7607 20.2881C88.3232 20.2881 88.8184 20.1855 89.2461 19.9805C89.6797 19.7754 90.0723 19.4473 90.4238 18.9961L91.083 19.4971C90.3096 20.6162 89.1875 21.1758 87.7168 21.1758ZM87.5234 12.2109C86.7324 12.2109 86.0645 12.501 85.5195 13.0811C84.9805 13.6611 84.6523 14.4404 84.5352 15.4189H90.2393V15.3047C90.21 14.3906 89.9492 13.6465 89.457 13.0723C88.9648 12.498 88.3203 12.2109 87.5234 12.2109Z" fill="#9893A3" fill-opacity="0.6"/>
</svg>
