<svg width="101" height="25" viewBox="0 0 101 25" fill="none" xmlns="http://www.w3.org/2000/svg">
<path fill-rule="evenodd" clip-rule="evenodd" d="M1.31785 11.2873C2.60968 5.18565 7.2723 0.902588 12.6229 0.902588C17.9734 0.902588 22.636 5.18565 23.9279 11.2873H22.9067C21.1841 11.2575 19.4968 11.8625 18.0818 13.0173C18.0001 13.0868 17.9148 13.1502 17.8265 13.2073H17.7073C17.619 13.1502 17.5337 13.0868 17.4521 13.0173C14.532 10.7098 10.7137 10.7098 7.79366 13.0173C7.71199 13.0868 7.62673 13.1502 7.53837 13.2073H7.41924C7.33087 13.1502 7.24561 13.0868 7.16395 13.0173C5.74892 11.8625 4.06162 11.2575 2.33901 11.2873H1.31785ZM21.0694 17.5573C21.5936 17.0776 22.2433 16.8266 22.9075 16.8473H24.2775V13.6373H22.9075C21.7376 13.6207 20.5944 14.0486 19.6483 14.8573C18.5554 15.8042 17.0651 15.8042 15.9721 14.8573C13.9852 13.2319 11.3472 13.2319 9.36019 14.8573C8.26726 15.8042 6.77697 15.8042 5.68404 14.8573C4.7262 14.0382 3.56668 13.6098 2.38232 13.6373H0.969727V16.8473H2.33977C3.00395 16.8266 3.65364 17.0776 4.17785 17.5573C6.16138 19.1839 8.79776 19.1839 10.7813 17.5573C11.3062 17.079 11.9554 16.8283 12.6194 16.8473C13.2838 16.8249 13.9339 17.0761 14.4574 17.5573C16.4444 19.1827 19.0824 19.1827 21.0694 17.5573ZM22.9075 22.5873C22.2433 22.5666 21.5936 22.8176 21.0694 23.2973C19.0824 24.9227 16.4444 24.9227 14.4574 23.2973C13.9339 22.8161 13.2838 22.5649 12.6194 22.5873C11.9554 22.5683 11.3062 22.819 10.7813 23.2973C8.79776 24.9239 6.16138 24.9239 4.17785 23.2973C3.65364 22.8176 3.00395 22.5666 2.33977 22.5873H0.969727V19.3773H2.38232C3.56668 19.3498 4.7262 19.7782 5.68404 20.5973C6.77697 21.5442 8.26726 21.5442 9.36019 20.5973C11.3472 18.9719 13.9852 18.9719 15.9721 20.5973C17.0651 21.5442 18.5554 21.5442 19.6483 20.5973C20.5944 19.7886 21.7376 19.3607 22.9075 19.3773H24.2775V22.5873H22.9075Z" fill="#9893A3" fill-opacity="0.6"/>
<path d="M35.102 20.1373C34.0487 20.1373 33.282 19.804 32.802 19.1373C32.322 18.4573 32.082 17.4907 32.082 16.2373V10.0773H34.382V15.9373C34.382 16.7507 34.502 17.324 34.742 17.6573C34.982 17.9907 35.3687 18.1573 35.902 18.1573C36.3287 18.1573 36.702 18.0507 37.022 17.8373C37.3554 17.624 37.7087 17.2773 38.082 16.7973V10.0773H40.382V19.8973H38.502L38.322 18.4573H38.262C37.8354 18.964 37.3687 19.3707 36.862 19.6773C36.3687 19.984 35.782 20.1373 35.102 20.1373Z" fill="#9893A3" fill-opacity="0.6"/>
<path d="M42.2953 19.8973V10.0773H44.1953L44.3553 11.4173H44.4353C44.8486 10.9773 45.2953 10.604 45.7753 10.2973C46.2686 9.99068 46.822 9.83734 47.4353 9.83734C48.1553 9.83734 48.7286 9.99068 49.1553 10.2973C49.5953 10.604 49.9286 11.0373 50.1553 11.5973C50.622 11.0907 51.1086 10.6707 51.6153 10.3373C52.122 10.004 52.6886 9.83734 53.3153 9.83734C54.3553 9.83734 55.122 10.1773 55.6153 10.8573C56.1086 11.524 56.3553 12.484 56.3553 13.7373V19.8973H54.0353V14.0373C54.0353 13.224 53.9086 12.6507 53.6553 12.3173C53.4153 11.984 53.042 11.8173 52.5353 11.8173C51.922 11.8173 51.2353 12.224 50.4753 13.0373V19.8973H48.1753V14.0373C48.1753 13.224 48.0486 12.6507 47.7953 12.3173C47.5553 11.984 47.1753 11.8173 46.6553 11.8173C46.042 11.8173 45.3553 12.224 44.5953 13.0373V19.8973H42.2953Z" fill="#9893A3" fill-opacity="0.6"/>
<path d="M62.9108 20.1373C62.4574 20.1373 61.9974 20.0307 61.5308 19.8173C61.0774 19.5907 60.6441 19.2707 60.2308 18.8573H60.1708L59.9708 19.8973H58.1508V5.77734H60.4508V9.41734L60.3908 11.0573C60.8041 10.6973 61.2508 10.404 61.7308 10.1773C62.2241 9.95068 62.7241 9.83734 63.2308 9.83734C63.8441 9.83734 64.3908 9.95734 64.8708 10.1973C65.3508 10.424 65.7575 10.7573 66.0908 11.1973C66.4241 11.624 66.6774 12.144 66.8508 12.7573C67.0241 13.3707 67.1108 14.0573 67.1108 14.8173C67.1108 15.6573 66.9908 16.4107 66.7508 17.0773C66.5241 17.7307 66.2174 18.284 65.8308 18.7373C65.4441 19.1907 64.9974 19.5373 64.4908 19.7773C63.9841 20.0173 63.4574 20.1373 62.9108 20.1373ZM62.4308 18.2373C63.0841 18.2373 63.6308 17.9573 64.0708 17.3973C64.5108 16.824 64.7308 15.9773 64.7308 14.8573C64.7308 13.8707 64.5641 13.104 64.2308 12.5573C63.8974 12.0107 63.3574 11.7373 62.6108 11.7373C61.9174 11.7373 61.1974 12.104 60.4508 12.8373V17.4173C60.7974 17.724 61.1374 17.9373 61.4708 18.0573C61.8174 18.1773 62.1374 18.2373 62.4308 18.2373Z" fill="#9893A3" fill-opacity="0.6"/>
<path d="M68.4203 19.8973V10.0773H70.3203L70.4803 11.8173H70.5603C70.907 11.1773 71.327 10.6907 71.8203 10.3573C72.3136 10.0107 72.8203 9.83734 73.3403 9.83734C73.807 9.83734 74.1803 9.90401 74.4603 10.0373L74.0603 12.0373C73.887 11.984 73.727 11.944 73.5803 11.9173C73.4336 11.8907 73.2536 11.8773 73.0403 11.8773C72.6536 11.8773 72.247 12.0307 71.8203 12.3373C71.3936 12.6307 71.027 13.1507 70.7203 13.8973V19.8973H68.4203Z" fill="#9893A3" fill-opacity="0.6"/>
<path d="M78.8859 20.1373C78.2059 20.1373 77.5726 20.024 76.9859 19.7973C76.3993 19.5573 75.8859 19.2173 75.4459 18.7773C75.0059 18.3373 74.6593 17.804 74.4059 17.1773C74.1659 16.5373 74.0459 15.8107 74.0459 14.9973C74.0459 14.1973 74.1726 13.4773 74.4259 12.8373C74.6793 12.1973 75.0126 11.6573 75.4259 11.2173C75.8526 10.7773 76.3393 10.4373 76.8859 10.1973C77.4326 9.95734 77.9926 9.83734 78.5659 9.83734C79.2326 9.83734 79.8193 9.95068 80.3259 10.1773C80.8326 10.404 81.2526 10.724 81.5859 11.1373C81.9326 11.5507 82.1926 12.044 82.3659 12.6173C82.5393 13.1907 82.6259 13.8173 82.6259 14.4973C82.6259 14.724 82.6126 14.9373 82.5859 15.1373C82.5726 15.3373 82.5526 15.4973 82.5259 15.6173H76.2859C76.3926 16.4973 76.6993 17.1773 77.2059 17.6573C77.7259 18.124 78.3859 18.3573 79.1859 18.3573C79.6126 18.3573 80.0059 18.2973 80.3659 18.1773C80.7393 18.044 81.1059 17.864 81.4659 17.6373L82.2459 19.0773C81.7793 19.384 81.2593 19.6373 80.6859 19.8373C80.1126 20.0373 79.5126 20.1373 78.8859 20.1373ZM76.2659 14.0573H80.6259C80.6259 13.2973 80.4593 12.704 80.1259 12.2773C79.8059 11.8373 79.3059 11.6173 78.6259 11.6173C78.0393 11.6173 77.5259 11.824 77.0859 12.2373C76.6459 12.6507 76.3726 13.2573 76.2659 14.0573Z" fill="#9893A3" fill-opacity="0.6"/>
<path d="M86.0627 20.1373C85.236 20.1373 84.656 19.8907 84.3227 19.3973C83.9893 18.904 83.8227 18.2307 83.8227 17.3773V5.77734H86.1227V17.4973C86.1227 17.7773 86.176 17.9773 86.2827 18.0973C86.3893 18.204 86.5027 18.2573 86.6227 18.2573C86.676 18.2573 86.7227 18.2573 86.7627 18.2573C86.816 18.2573 86.8893 18.244 86.9827 18.2173L87.2827 19.9373C86.976 20.0707 86.5693 20.1373 86.0627 20.1373Z" fill="#9893A3" fill-opacity="0.6"/>
<path d="M90.4923 20.1373C89.6657 20.1373 89.0857 19.8907 88.7523 19.3973C88.419 18.904 88.2523 18.2307 88.2523 17.3773V5.77734H90.5523V17.4973C90.5523 17.7773 90.6057 17.9773 90.7123 18.0973C90.819 18.204 90.9323 18.2573 91.0523 18.2573C91.1057 18.2573 91.1523 18.2573 91.1923 18.2573C91.2457 18.2573 91.319 18.244 91.4123 18.2173L91.7123 19.9373C91.4057 20.0707 90.999 20.1373 90.4923 20.1373Z" fill="#9893A3" fill-opacity="0.6"/>
<path d="M95.062 20.1373C94.1954 20.1373 93.4954 19.8773 92.962 19.3573C92.4287 18.824 92.162 18.124 92.162 17.2573C92.162 16.7373 92.2687 16.2773 92.482 15.8773C92.7087 15.464 93.0554 15.1107 93.522 14.8173C94.002 14.524 94.602 14.2773 95.322 14.0773C96.0554 13.8773 96.9287 13.724 97.942 13.6173C97.9287 13.364 97.8887 13.124 97.822 12.8973C97.7687 12.6573 97.6687 12.4507 97.522 12.2773C97.3887 12.0907 97.2087 11.9507 96.982 11.8573C96.7554 11.7507 96.4754 11.6973 96.142 11.6973C95.662 11.6973 95.1887 11.7907 94.722 11.9773C94.2687 12.164 93.822 12.3907 93.382 12.6573L92.542 11.1173C93.0887 10.7707 93.702 10.4707 94.382 10.2173C95.062 9.96401 95.7954 9.83734 96.582 9.83734C97.8087 9.83734 98.722 10.204 99.322 10.9373C99.9354 11.6573 100.242 12.704 100.242 14.0773V19.8973H98.342L98.182 18.8173H98.102C97.662 19.1907 97.1887 19.504 96.682 19.7573C96.1887 20.0107 95.6487 20.1373 95.062 20.1373ZM95.802 18.3373C96.202 18.3373 96.562 18.244 96.882 18.0573C97.2154 17.8707 97.5687 17.604 97.942 17.2573V15.0573C97.2754 15.1373 96.7154 15.244 96.262 15.3773C95.8087 15.5107 95.442 15.664 95.162 15.8373C94.882 15.9973 94.682 16.184 94.562 16.3973C94.442 16.6107 94.382 16.8373 94.382 17.0773C94.382 17.5173 94.5154 17.8373 94.782 18.0373C95.0487 18.2373 95.3887 18.3373 95.802 18.3373Z" fill="#9893A3" fill-opacity="0.6"/>
</svg>
